<svg width="217" height="52" viewBox="0 0 217 52" fill="none" xmlns="http://www.w3.org/2000/svg">
<g clip-path="url(#clip0_121_133)">
<path fill-rule="evenodd" clip-rule="evenodd" d="M12.9563 3.69055V51.8172H0.103485V3.69055H12.9563Z" fill="#283841"/>
<path fill-rule="evenodd" clip-rule="evenodd" d="M19.3827 3.69055H46.6949C55.5679 3.69055 62.7608 10.8729 62.7608 19.7328C62.7608 28.5927 55.5679 35.775 46.6949 35.775H32.2354V51.8172H19.3827V3.69055ZM32.2354 22.9412H46.6949C48.4695 22.9412 49.9081 21.5047 49.9081 19.7328C49.9081 17.9608 48.4695 16.5243 46.6949 16.5243H32.2354V22.9412Z" fill="#283841"/>
<path fill-rule="evenodd" clip-rule="evenodd" d="M110.959 3.69055V28.556C110.959 34.3149 115.634 38.9834 121.402 38.9834C127.169 38.9834 131.845 34.3149 131.845 28.556V3.69055H144.698V28.556C144.698 41.4028 134.268 51.8172 121.402 51.8172C108.536 51.8172 98.106 41.4028 98.106 28.556V3.69055H110.959Z" fill="#283841"/>
<path fill-rule="evenodd" clip-rule="evenodd" d="M67.5807 26.1497C67.5807 13.7458 77.6508 3.69055 90.073 3.69055H93.2862V16.5243H90.073C84.7492 16.5243 80.4334 20.8338 80.4334 26.1497V27.7539C80.4334 41.0436 69.6439 51.8172 56.3344 51.8172H54.7279V38.9834H56.3344C62.5456 38.9834 67.5807 33.9558 67.5807 27.7539V26.1497Z" fill="#283841"/>
<path d="M216.994 5.29484C216.994 7.95281 214.837 10.1075 212.174 10.1075C209.512 10.1075 207.355 7.95281 207.355 5.29484C207.355 2.63688 209.512 0.482178 212.174 0.482178C214.837 0.482178 216.994 2.63688 216.994 5.29484Z" fill="#283841"/>
<path d="M158.498 51.8173L164.631 26.173L169.191 41.6007C171.909 50.8023 184.963 50.8023 187.682 41.6007L192.241 26.173L198.374 51.8173H211.587L201.944 11.4929C199.651 1.90349 186.118 1.54843 183.322 11.0045L178.437 27.5401L173.549 11.0045C170.756 1.54848 157.221 1.90343 154.928 11.4929L145.284 51.8173H158.498Z" fill="#283841"/>
</g>
<defs>
<clipPath id="clip0_121_133">
<rect width="216.891" height="51.3351" fill="white" transform="translate(0.103455 0.482178)"/>
</clipPath>
</defs>
</svg>
